<svg id="Layer_1" data-name="Layer 1" xmlns="http://www.w3.org/2000/svg" xmlns:xlink="http://www.w3.org/1999/xlink" viewBox="0 0 565.72 293.79"><defs><style>.cls-1,.cls-22,.cls-40,.cls-41,.cls-44,.cls-7{fill:none;}.cls-2{fill:url(#linear-gradient);}.cls-3{fill:#686868;opacity:0.51;}.cls-4{clip-path:url(#clip-path);}.cls-5{fill:#a7a9ac;}.cls-30,.cls-33,.cls-6{fill:#fff;}.cls-22,.cls-7{stroke:#231f20;}.cls-22,.cls-36,.cls-39,.cls-40,.cls-41,.cls-44,.cls-7{stroke-miterlimit:10;}.cls-7{stroke-width:8px;}.cls-8{fill:#f2e2b3;}.cls-9{fill:#231f20;}.cls-10{opacity:0.5;fill:url(#linear-gradient-2);}.cls-11{fill:#ededed;}.cls-12{fill:#f9f9fa;}.cls-13{fill:#458e43;}.cls-14{fill:#d9b133;}.cls-15{fill:#dc4026;}.cls-16{font-size:8px;fill:#353535;font-family:Poppins-Regular, Poppins;}.cls-17{fill:#edb03d;}.cls-18{fill:#6f7073;opacity:0.47;}.cls-19,.cls-37{fill:#d77057;}.cls-20{clip-path:url(#clip-path-4);}.cls-21{fill:url(#linear-gradient-4);}.cls-22,.cls-40,.cls-41,.cls-44{stroke-width:0.25px;}.cls-23{fill:#f4b656;}.cls-24{fill:#5c5c5c;opacity:0.56;}.cls-25{fill:#99673e;}.cls-26{fill:#777;opacity:0.57;}.cls-27{fill:#c88c5d;}.cls-28{fill:#f9b444;}.cls-29{fill:#dd9c32;}.cls-30,.cls-33{font-size:18px;font-family:Poppins-Bold, Poppins;font-weight:700;}.cls-30,.cls-34{letter-spacing:0.14em;}.cls-31{letter-spacing:0.14em;}.cls-32{letter-spacing:0em;}.cls-33{letter-spacing:0.14em;}.cls-35{letter-spacing:0em;}.cls-36,.cls-39{fill:#e58a27;stroke-width:0.75px;}.cls-36{stroke:#c7832a;}.cls-37,.cls-38{font-size:7px;font-family:Poppins-Light, Poppins;}.cls-38{fill:#4d4d4f;}.cls-39{stroke:#7f5121;}.cls-40{stroke:#a3a5a8;}.cls-41{stroke:#939598;}.cls-42{fill:#1e1e1e;}.cls-43{fill:#fffeff;}.cls-44{stroke:#fff;}.cls-45{fill:#4e4e4f;}</style><linearGradient id="linear-gradient" x1="47.01" y1="258.19" x2="159.47" y2="258.19" gradientUnits="userSpaceOnUse"><stop offset="0" stop-color="#303030"/><stop offset="0.05" stop-color="#252525"/><stop offset="0.16" stop-color="#141414"/><stop offset="0.29" stop-color="#090909"/><stop offset="0.48" stop-color="#020202"/><stop offset="1"/></linearGradient><clipPath id="clip-path" transform="translate(-25.16 -213.04)"><rect class="cls-1" width="595.28" height="841.89"/></clipPath><linearGradient id="linear-gradient-2" x1="7.46" y1="255.64" x2="7.96" y2="255.64" gradientUnits="userSpaceOnUse"><stop offset="0" stop-color="#303030"/><stop offset="0" stop-color="#373737"/><stop offset="0" stop-color="#606060"/><stop offset="0" stop-color="#878787"/><stop offset="0" stop-color="#a7a7a7"/><stop offset="0" stop-color="#c3c3c3"/><stop offset="0" stop-color="#d9d9d9"/><stop offset="0" stop-color="#eaeaea"/><stop offset="0" stop-color="#f6f6f6"/><stop offset="0" stop-color="#fdfdfd"/><stop offset="0" stop-color="#fff"/><stop offset="0.01" stop-color="#f6f6f6"/><stop offset="0.05" stop-color="#c8c8c8"/><stop offset="0.09" stop-color="#9d9d9d"/><stop offset="0.14" stop-color="#777"/><stop offset="0.2" stop-color="#575757"/><stop offset="0.25" stop-color="#3b3b3b"/><stop offset="0.32" stop-color="#252525"/><stop offset="0.4" stop-color="#141414"/><stop offset="0.49" stop-color="#090909"/><stop offset="0.63" stop-color="#020202"/><stop offset="1"/></linearGradient><clipPath id="clip-path-4" transform="translate(-25.16 -213.04)"><path class="cls-2" d="M157.59,213.22,86.14,231.54a8.9,8.9,0,0,0-5.7,4.55l-33.27,65a1.46,1.46,0,0,0,1.71,2.06l71.46-18.32a8.88,8.88,0,0,0,5.69-4.55l33.28-65a1.46,1.46,0,0,0-1.33-2.11,1.89,1.89,0,0,0-.39.05"/></clipPath><linearGradient id="linear-gradient-4" x1="21.43" y1="45.28" x2="134.66" y2="45.28" xlink:href="#linear-gradient"/></defs><title>incendium</title><ellipse class="cls-3" cx="283.22" cy="257.72" rx="282.51" ry="36.07"/><g class="cls-4"><path class="cls-5" d="M590.89,467.63c0,20.32-126.64,36.79-282.86,36.79S25.16,488,25.16,467.63,151.81,430.84,308,430.84s282.86,16.47,282.86,36.79" transform="translate(-25.16 -213.04)"/><path class="cls-6" d="M411.65,461.63H107.8a4.56,4.56,0,0,1-4.56-4.56V272.6A4.56,4.56,0,0,1,107.8,268H411.65a4.57,4.57,0,0,1,4.57,4.56V457.07a4.57,4.57,0,0,1-4.57,4.56" transform="translate(-25.16 -213.04)"/><rect class="cls-7" x="78.07" y="54.99" width="312.98" height="193.59" rx="4.56" ry="4.56"/><path class="cls-8" d="M413.39,454.19H106.07V273.06a2.83,2.83,0,0,1,2.83-2.84H410.55a2.84,2.84,0,0,1,2.84,2.84Z" transform="translate(-25.16 -213.04)"/><path class="cls-9" d="M434.4,467.63H85.05a5,5,0,0,1,0-10.08H434.4a5,5,0,1,1,0,10.08" transform="translate(-25.16 -213.04)"/><path class="cls-7" d="M434.4,467.63H85.05a5,5,0,0,1,0-10.08H434.4a5,5,0,1,1,0,10.08Z" transform="translate(-25.16 -213.04)"/></g><path class="cls-10" d="M55.44,249.55h363a0,0,0,0,1,0,0V255a6.77,6.77,0,0,1-6.77,6.77H60a4.59,4.59,0,0,1-4.59-4.59v-7.61a0,0,0,0,1,0,0Z"/><g class="cls-4"><path class="cls-11" d="M347.58,434.44H118.71a3.21,3.21,0,0,1-3.41-3V313.56a3.22,3.22,0,0,1,3.41-3H347.58a3.22,3.22,0,0,1,3.42,3V431.48a3.21,3.21,0,0,1-3.42,3" transform="translate(-25.16 -213.04)"/><path class="cls-12" d="M348.18,305.7H118.11a2.65,2.65,0,0,0-2.81,2.45v7.63H351v-7.63a2.66,2.66,0,0,0-2.82-2.45" transform="translate(-25.16 -213.04)"/><path class="cls-13" d="M331.4,309.69a2.52,2.52,0,1,1-3.52-.94,2.58,2.58,0,0,1,3.52.94" transform="translate(-25.16 -213.04)"/><path class="cls-14" d="M339.71,309.69a2.52,2.52,0,1,1-3.51-.94,2.58,2.58,0,0,1,3.51.94" transform="translate(-25.16 -213.04)"/><path class="cls-15" d="M348.09,309.69a2.52,2.52,0,1,1-3.51-.94,2.57,2.57,0,0,1,3.51.94" transform="translate(-25.16 -213.04)"/></g><text class="cls-16" transform="translate(95.62 114.1)">Incendium Academy</text><polygon class="cls-17" points="23.6 138.6 17.65 164.97 29.55 164.97 23.6 138.6"/><rect class="cls-17" x="22.47" y="87.15" width="2.25" height="48.7"/><ellipse class="cls-18" cx="128.55" cy="292.09" rx="37.9" ry="8.04" transform="translate(-183.12 -61.5) rotate(-40.11)"/><rect class="cls-19" x="78.91" y="263.26" width="79.76" height="28.07" transform="translate(-175.03 -72.97) rotate(-39.75)"/><g class="cls-4"><path class="cls-19" d="M158.11,262.21c-3.5-4.21-20.07,3.79-37,17.87S93.29,309,96.8,313.22s20.07-3.79,37-17.87,27.82-28.92,24.31-33.14" transform="translate(-25.16 -213.04)"/></g><path class="cls-2" d="M157.59,213.22,86.14,231.54a8.9,8.9,0,0,0-5.7,4.55l-33.27,65a1.46,1.46,0,0,0,1.71,2.06l71.46-18.32a8.88,8.88,0,0,0,5.69-4.55l33.28-65a1.46,1.46,0,0,0-1.33-2.11,1.89,1.89,0,0,0-.39.05" transform="translate(-25.16 -213.04)"/><g class="cls-20"><rect class="cls-21" x="21.43" y="0.13" width="113.23" height="90.31"/></g><g class="cls-4"><path class="cls-22" d="M120.34,284.84,48.88,303.16a1.46,1.46,0,0,1-1.71-2.06l33.27-65a8.9,8.9,0,0,1,5.7-4.55l71.45-18.32a1.47,1.47,0,0,1,1.72,2.06l-33.28,65A8.88,8.88,0,0,1,120.34,284.84Z" transform="translate(-25.16 -213.04)"/><path class="cls-9" d="M52.78,353.17c0,3.68-1.8,6.66-4,6.66s-4-3-4-6.66,1.79-6.66,4-6.66,4,3,4,6.66" transform="translate(-25.16 -213.04)"/></g><polygon class="cls-23" points="420.39 27.84 418.48 12.76 427.06 19.07 432.69 10.26 435.74 32.23 420.39 27.84"/><polygon class="cls-24" points="415.61 252.98 439.63 252.98 456.44 249.88 479.07 248.21 418.48 238.84 415.61 252.98"/><path class="cls-25" d="M537.8,461.63H452.27l-11.5-220.74h6.57l13,220.74,75.46-9.34L520.33,240.51c-.21-2-1.26-2.91-2.49-2.86l-70.5,3.24,13,220.74" transform="translate(-25.16 -213.04)"/><path class="cls-26" d="M464.8,466l36.2,1.06,52.36-12.73a1.21,1.21,0,0,0,.53-2.08L549,447.89l-73.77,16.73C474.11,464.87,463.64,466,464.8,466Z" transform="translate(-25.16 -213.04)"/><path class="cls-27" d="M414.62,243l26.88-2a1.26,1.26,0,0,1,1.35,1.18l13.73,218.13a1.25,1.25,0,0,1-1.25,1.34h-27a1.26,1.26,0,0,1-1.25-1.18l-13.6-216.1A1.26,1.26,0,0,1,414.62,243Z" transform="translate(-25.16 -213.04)"/><path class="cls-28" d="M477.18,463.85l20.71.13a1,1,0,0,0,1-1.06l-11.24-194.8a1,1,0,0,0-1.09-.95l-20.84,1.6a1,1,0,0,0-.93,1.07L476.18,462.9A1,1,0,0,0,477.18,463.85Z" transform="translate(-25.16 -213.04)"/><path class="cls-29" d="M487.6,267.06l52.56-2.25a3.15,3.15,0,0,1,3.29,2.95L555.59,449a3.16,3.16,0,0,1-2.49,3.31L499,464Z" transform="translate(-25.16 -213.04)"/><g class="cls-4"><path class="cls-9" d="M434.4,467.63H85.05a5,5,0,0,1,0-10.08H434.4a5,5,0,1,1,0,10.08" transform="translate(-25.16 -213.04)"/><path class="cls-7" d="M434.4,467.63H85.05a5,5,0,0,1,0-10.08H434.4a5,5,0,1,1,0,10.08Z" transform="translate(-25.16 -213.04)"/><path class="cls-17" d="M51.75,354.59h-6a1.42,1.42,0,0,1,0-2.83h6a1.42,1.42,0,1,1,0,2.83" transform="translate(-25.16 -213.04)"/></g><text class="cls-30" transform="matrix(0.06, 1, -1, 0.06, 398.52, 62.29)">PHYSI<tspan class="cls-31" x="65.63" y="0">C</tspan><tspan class="cls-32" x="81.88" y="0">S</tspan></text><text class="cls-33" transform="matrix(0.06, 1, -1, 0.06, 445.45, 80.93)">M<tspan class="cls-31" x="19.08" y="0">A</tspan><tspan class="cls-34" x="34.88" y="0">T</tspan><tspan class="cls-35" x="48.08" y="0">H</tspan></text><line class="cls-36" x1="464.66" y1="55.95" x2="475.86" y2="246.75"/><text class="cls-37" transform="translate(93.62 130.05)">Physical Chemistry</text><polygon class="cls-19" points="185.03 130.05 181.04 125.64 177.43 130.04 185.03 130.05"/><text class="cls-38" transform="translate(97.62 142.05)">Rates and Kinematics</text><line class="cls-39" x1="420.11" y1="31.8" x2="434.11" y2="245.4"/><text class="cls-37" transform="translate(93.62 164.97)">Organic Chemistry</text><polygon class="cls-19" points="177.44 160.57 181.44 164.97 185.03 160.57 177.44 160.57"/><line class="cls-1" x1="90.13" y1="119.25" x2="325.84" y2="119.65"/><line class="cls-40" x1="90.13" y1="119.25" x2="325.83" y2="119.65"/><line class="cls-41" x1="188.89" y1="222.39" x2="189.29" y2="103.16"/><rect class="cls-42" x="192.64" y="121.65" width="130.8" height="72.8" rx="3.4" ry="3.4"/><rect class="cls-19" x="247.82" y="151.48" width="19.6" height="13.62" rx="4.95" ry="4.95"/><polygon class="cls-43" points="254.02 155.2 254.08 161.2 262.05 158.01 254.02 155.2"/><line class="cls-44" x1="22.47" y1="151.6" x2="19.44" y2="164.97"/><line class="cls-44" x1="20.64" y1="168.05" x2="22.22" y2="147.74"/><line class="cls-44" x1="22.64" y1="168.45" x2="23.39" y2="146.94"/><line class="cls-44" x1="17.65" y1="172.05" x2="22.22" y2="147.74"/><line class="cls-44" x1="27.04" y1="168.85" x2="23.97" y2="147.14"/><line class="cls-44" x1="28.04" y1="169.14" x2="24.98" y2="147.44"/><line class="cls-44" x1="24.72" y1="170.45" x2="24.02" y2="147.44"/><line class="cls-44" x1="27.74" y1="166.97" x2="25.18" y2="146.66"/><line class="cls-44" x1="21.43" y1="170.45" x2="22.62" y2="147.24"/><line class="cls-44" x1="29.55" y1="172.45" x2="25.66" y2="147.34"/><polygon class="cls-45" points="185.03 141.93 181.04 137.52 177.43 141.92 185.03 141.93"/><text class="cls-38" transform="translate(113.39 153.53)">Rate Laws</text><ellipse class="cls-28" cx="132.36" cy="364.4" rx="3.88" ry="3.81" transform="translate(-259.7 276.63) rotate(-88.89)"/><rect class="cls-6" x="129.92" y="363.52" width="4.89" height="1.76" rx="0.88" ry="0.88" transform="translate(-18.08 -215.54) rotate(1.11)"/><text class="cls-38" transform="translate(192.64 203.13)">Rate Laws</text></svg>