<svg xmlns="http://www.w3.org/2000/svg" viewBox="0 0 1067.94 119.33"><defs><style>.cls-1{fill:#fcb63c;}.cls-2{fill:#f2715b;}.cls-3{fill:#403f41;}.cls-4{fill:none;stroke:#f2715b;stroke-miterlimit:10;stroke-width:10px;}</style></defs><g id="Layer_4" data-name="Layer 4"><rect class="cls-1" x="993.03" y="100.17" width="10.5" height="10.5" rx="5.25"/><rect class="cls-2" x="133.61" y="100.17" width="824.67" height="10.5" rx="5.25"/></g><g id="Layer_1" data-name="Layer 1"><path class="cls-3" d="M144.05,27.23V87.7h-9.91V27.23Z"/><path class="cls-3" d="M189.08,41.32a16.77,16.77,0,0,1,7,7,23,23,0,0,1,2.52,11.14V87.7h-9.83V60.9q0-6.43-3.22-9.88a11.43,11.43,0,0,0-8.78-3.43A11.58,11.58,0,0,0,167.94,51q-3.27,3.45-3.27,9.88V87.7h-9.91V39.76h9.91v5.48a16.48,16.48,0,0,1,6.22-4.61A20,20,0,0,1,178.94,39,21.59,21.59,0,0,1,189.08,41.32Z"/><path class="cls-3" d="M208.56,50.68A21.35,21.35,0,0,1,216.87,42a24,24,0,0,1,12.18-3q8.7,0,14.4,4.13a20.34,20.34,0,0,1,7.7,11.79h-10.7a11.27,11.27,0,0,0-4.18-5.57,12.35,12.35,0,0,0-7.22-2,12,12,0,0,0-9.7,4.3q-3.61,4.32-3.61,12t3.61,12.1a12,12,0,0,0,9.7,4.35q8.61,0,11.4-7.57h10.7a21.39,21.39,0,0,1-7.83,11.61q-5.74,4.31-14.27,4.31a23.77,23.77,0,0,1-12.18-3.09,21.64,21.64,0,0,1-8.31-8.7,27.19,27.19,0,0,1-3-13A27.14,27.14,0,0,1,208.56,50.68Z"/><path class="cls-3" d="M302.31,67.42H265.68a13.21,13.21,0,0,0,13.66,12.71q8,0,11.31-6.7h10.7a21.57,21.57,0,0,1-7.88,10.83q-5.69,4.21-14.13,4.22A24.44,24.44,0,0,1,267,85.39a22,22,0,0,1-8.53-8.7,26.54,26.54,0,0,1-3.09-13,27.14,27.14,0,0,1,3-13A21.15,21.15,0,0,1,266.85,42a25.14,25.14,0,0,1,12.49-3,24.44,24.44,0,0,1,12.09,3,21.05,21.05,0,0,1,8.27,8.31,25,25,0,0,1,2.95,12.31A31.17,31.17,0,0,1,302.31,67.42Zm-10-8a11.32,11.32,0,0,0-3.91-8.79,14,14,0,0,0-9.49-3.3,12.73,12.73,0,0,0-8.78,3.26,13.59,13.59,0,0,0-4.35,8.83Z"/><path class="cls-3" d="M344.37,41.32a16.77,16.77,0,0,1,7,7,23,23,0,0,1,2.52,11.14V87.7h-9.83V60.9q0-6.43-3.22-9.88a11.43,11.43,0,0,0-8.78-3.43A11.58,11.58,0,0,0,323.23,51Q320,54.47,320,60.9V87.7h-9.91V39.76H320v5.48a16.48,16.48,0,0,1,6.22-4.61A20,20,0,0,1,334.23,39,21.59,21.59,0,0,1,344.37,41.32Z"/><path class="cls-3" d="M363.86,50.72A21.81,21.81,0,0,1,383.56,39a22.57,22.57,0,0,1,9.27,2,19,19,0,0,1,7.26,5.44V23.32h10V87.7h-10V80.47a18.48,18.48,0,0,1-6.74,5.75,21,21,0,0,1-9.88,2.26A21.44,21.44,0,0,1,372,85.3a22.33,22.33,0,0,1-8.17-8.87,27.21,27.21,0,0,1-3-12.92A26.44,26.44,0,0,1,363.86,50.72Zm34.19,4.35a14.5,14.5,0,0,0-5.35-5.57,14.19,14.19,0,0,0-19.62,5.44A17,17,0,0,0,371,63.51a17.76,17.76,0,0,0,2.05,8.7,14.48,14.48,0,0,0,5.39,5.7,14,14,0,0,0,14.23,0,14.28,14.28,0,0,0,5.35-5.61,17.63,17.63,0,0,0,2-8.66A17.4,17.4,0,0,0,398.05,55.07Z"/><path class="cls-3" d="M421.32,31.58a6.15,6.15,0,0,1-1.83-4.52,6.23,6.23,0,0,1,6.35-6.35,6,6,0,0,1,4.44,1.82,6.15,6.15,0,0,1,1.83,4.53,6.15,6.15,0,0,1-1.83,4.52,6,6,0,0,1-4.44,1.83A6.13,6.13,0,0,1,421.32,31.58Zm9.39,8.18V87.7H420.8V39.76Z"/><path class="cls-3" d="M484.83,39.76V87.7h-9.92V82a16.09,16.09,0,0,1-6.13,4.65,19.35,19.35,0,0,1-8,1.7A21.48,21.48,0,0,1,450.59,86a16.92,16.92,0,0,1-7-7A22.45,22.45,0,0,1,441,68V39.76h9.83V66.47q0,6.44,3.22,9.87a11.45,11.45,0,0,0,8.79,3.44,11.61,11.61,0,0,0,8.83-3.44q3.25-3.44,3.26-9.87V39.76Z"/><path class="cls-3" d="M563.69,41.32a17,17,0,0,1,7,7,22.62,22.62,0,0,1,2.57,11.14V87.7h-9.84V60.9q0-6.43-3.21-9.88a11.47,11.47,0,0,0-8.79-3.43A11.59,11.59,0,0,0,542.64,51q-3.27,3.45-3.26,9.88V87.7h-9.84V60.9q0-6.43-3.21-9.88a11.47,11.47,0,0,0-8.79-3.43A11.59,11.59,0,0,0,508.71,51q-3.27,3.45-3.26,9.88V87.7h-9.92V39.76h9.92v5.48a16.46,16.46,0,0,1,6.17-4.61,19.63,19.63,0,0,1,8-1.65,21.33,21.33,0,0,1,10.26,2.43,16.67,16.67,0,0,1,7,7.05,16.06,16.06,0,0,1,6.79-6.92A20.06,20.06,0,0,1,553.56,39,21.55,21.55,0,0,1,563.69,41.32Z"/><path class="cls-3" d="M640.29,75.34H615L610.63,87.7H600.27l21.67-60.56h11.48L655.08,87.7H644.64Zm-2.78-8.09-9.83-28.1-9.92,28.1Z"/><path class="cls-3" d="M661.83,50.68a21.39,21.39,0,0,1,8.3-8.66,24,24,0,0,1,12.18-3q8.7,0,14.4,4.13a20.29,20.29,0,0,1,7.7,11.79h-10.7a11.27,11.27,0,0,0-4.18-5.57,12.35,12.35,0,0,0-7.22-2,12,12,0,0,0-9.7,4.3Q669,56,669,63.68t3.61,12.1a12,12,0,0,0,9.7,4.35q8.63,0,11.4-7.57h10.7a21.39,21.39,0,0,1-7.83,11.61q-5.75,4.31-14.27,4.31a23.77,23.77,0,0,1-12.18-3.09,21.68,21.68,0,0,1-8.3-8.7,27.07,27.07,0,0,1-3-13A27,27,0,0,1,661.83,50.68Z"/><path class="cls-3" d="M711.68,50.72A21.81,21.81,0,0,1,731.29,39a21.08,21.08,0,0,1,9.88,2.21,20,20,0,0,1,6.74,5.53v-7h10V87.7h-10V80.56A19.72,19.72,0,0,1,741,86.22a21.29,21.29,0,0,1-9.92,2.26,21,21,0,0,1-11.31-3.18,22.45,22.45,0,0,1-8.13-8.87,27.21,27.21,0,0,1-3-12.92A26.44,26.44,0,0,1,711.68,50.72Zm34.19,4.35a14.5,14.5,0,0,0-5.35-5.57,14.19,14.19,0,0,0-19.62,5.44,17,17,0,0,0-2,8.57,17.76,17.76,0,0,0,2,8.7,14.48,14.48,0,0,0,5.39,5.7,14,14,0,0,0,14.23,0,14.28,14.28,0,0,0,5.35-5.61,17.63,17.63,0,0,0,2-8.66A17.4,17.4,0,0,0,745.87,55.07Z"/><path class="cls-3" d="M768.31,50.72A21.84,21.84,0,0,1,788,39a22.49,22.49,0,0,1,9.26,2,19,19,0,0,1,7.27,5.44V23.32h10V87.7h-10V80.47a18.56,18.56,0,0,1-6.74,5.75,21.07,21.07,0,0,1-9.88,2.26,21.42,21.42,0,0,1-11.44-3.18,22.35,22.35,0,0,1-8.18-8.87,27.33,27.33,0,0,1-3-12.92A26.55,26.55,0,0,1,768.31,50.72Zm34.19,4.35a14.36,14.36,0,0,0-5.35-5.57A14,14,0,0,0,790,47.59a14.06,14.06,0,0,0-12.49,7.35,17.14,17.14,0,0,0-2,8.57,17.87,17.87,0,0,0,2,8.7,14.57,14.57,0,0,0,5.4,5.7,14,14,0,0,0,14.22,0,14.14,14.14,0,0,0,5.35-5.61,17.52,17.52,0,0,0,2-8.66A17.3,17.3,0,0,0,802.5,55.07Z"/><path class="cls-3" d="M868.84,67.42H832.21a13.29,13.29,0,0,0,4.27,9.23,13.44,13.44,0,0,0,9.39,3.48q8,0,11.31-6.7h10.7A21.56,21.56,0,0,1,860,84.26q-5.7,4.21-14.14,4.22a24.49,24.49,0,0,1-12.31-3.09,22,22,0,0,1-8.52-8.7,26.54,26.54,0,0,1-3.09-13,27.14,27.14,0,0,1,3-13A21.09,21.09,0,0,1,833.39,42a25.08,25.08,0,0,1,12.48-3,24.45,24.45,0,0,1,12.1,3,21,21,0,0,1,8.26,8.31,25.05,25.05,0,0,1,3,12.31A31.1,31.1,0,0,1,868.84,67.42Zm-10-8a11.32,11.32,0,0,0-3.92-8.79,14,14,0,0,0-9.48-3.3,12.76,12.76,0,0,0-8.79,3.26,13.59,13.59,0,0,0-4.35,8.83Z"/><path class="cls-3" d="M944.75,41.32a17,17,0,0,1,7,7,22.62,22.62,0,0,1,2.57,11.14V87.7h-9.83V60.9q0-6.43-3.22-9.88a11.47,11.47,0,0,0-8.79-3.43A11.61,11.61,0,0,0,923.69,51q-3.26,3.45-3.26,9.88V87.7H910.6V60.9q0-6.43-3.22-9.88a11.47,11.47,0,0,0-8.79-3.43A11.61,11.61,0,0,0,889.76,51q-3.25,3.45-3.26,9.88V87.7h-9.92V39.76h9.92v5.48a16.42,16.42,0,0,1,6.18-4.61,19.59,19.59,0,0,1,8-1.65A21.37,21.37,0,0,1,911,41.41a16.78,16.78,0,0,1,7,7.05,16.09,16.09,0,0,1,6.78-6.92A20.09,20.09,0,0,1,934.61,39,21.59,21.59,0,0,1,944.75,41.32Z"/><path class="cls-3" d="M1007.78,39.76l-29.41,70.47H968.1l9.75-23.32L959,39.76h11L983.5,76.3l14-36.54Z"/><path class="cls-1" d="M66.67,3.71l-30,65.55,4.84,1.42,4.85,1.43,20.35-44.4L87,72.11l4.84-1.43,4.85-1.42Z"/><path class="cls-4" d="M66.66,89.56,22.26,76.5v27.8a.32.32,0,0,0,.32.32h88.16a.32.32,0,0,0,.32-.32V76.5Z"/></g></svg>